<?xml version="1.0" encoding="iso-8859-1"?>
<!-- Generator: Adobe Illustrator 19.0.0, SVG Export Plug-In . SVG Version: 6.00 Build 0)  -->
<svg version="1.1" id="Capa_1" xmlns="http://www.w3.org/2000/svg" xmlns:xlink="http://www.w3.org/1999/xlink" x="0px" y="0px"
	 viewBox="0 0 511.987 511.987" style="enable-background:new 0 0 511.987 511.987;" xml:space="preserve">
<g>
	<g transform="translate(1 20)">
		<path style="fill:#2E7D32;" d="M135.527,432.253l0,51.2H24.593c-4.707-0.014-8.519-3.826-8.533-8.533v-42.667
			c-0.002-28.063,19.524-52.346,46.933-58.368c4.208-0.894,8.498-1.351,12.8-1.365c15.846-0.012,31.046,6.278,42.251,17.483
			C129.249,401.207,135.538,416.408,135.527,432.253z"/>
		<path style="fill:#FDD834;" d="M254.993,432.253l0,51.2H135.527v-51.2c-0.002-28.063,19.524-52.346,46.933-58.368
			c4.208-0.894,8.498-1.351,12.8-1.365c15.846-0.012,31.046,6.278,42.251,17.483C248.715,401.207,255.005,416.408,254.993,432.253z"
			/>
		<path style="fill:#AD1457;" d="M374.46,432.253v51.2H254.993v-51.2c-0.002-28.063,19.524-52.346,46.933-58.368
			c4.208-0.894,8.498-1.351,12.8-1.365c15.846-0.012,31.046,6.278,42.251,17.483C368.182,401.207,374.472,416.408,374.46,432.253z"
			/>
		<path style="fill:#00838F;" d="M493.927,432.253v42.667c-0.014,4.707-3.826,8.519-8.533,8.533H374.46v-51.2
			c-0.002-28.063,19.524-52.346,46.933-58.368c4.208-0.894,8.498-1.351,12.8-1.365c15.846-0.012,31.046,6.278,42.251,17.483
			C487.649,401.207,493.938,416.408,493.927,432.253z"/>
		<path style="fill:#4CAF50;" d="M109.927,432.253v51.2H24.593c-4.707-0.014-8.519-3.826-8.533-8.533v-42.667
			c-0.002-28.063,19.524-52.346,46.933-58.368C90.403,379.907,109.929,404.19,109.927,432.253z"/>
		<path style="fill:#FFEB3A;" d="M229.393,432.253v51.2h-93.867v-51.2c-0.002-28.063,19.524-52.346,46.933-58.368
			C209.869,379.907,229.396,404.19,229.393,432.253z"/>
		<path style="fill:#E91E63;" d="M348.86,432.253v51.2h-93.867v-51.2c-0.002-28.063,19.524-52.346,46.933-58.368
			C329.336,379.907,348.862,404.19,348.86,432.253z"/>
		<path style="fill:#00BCD4;" d="M468.327,432.253v42.667c-0.014,4.707-3.826,8.519-8.533,8.533H374.46v-51.2
			c-0.002-28.063,19.524-52.346,46.933-58.368C448.803,379.907,468.329,404.19,468.327,432.253z"/>
		<path style="fill:#FFE0B2;" d="M434.193,278.653c-3.079,0.013-6.151,0.303-9.179,0.866l0.048-0.013
			c-2.046-13.687-9.56-25.958-20.821-34.003c-11.261-8.045-25.304-11.176-38.916-8.676c-2.049-13.684-9.564-25.951-20.823-33.994
			c-11.26-8.043-25.301-11.172-38.91-8.673c-3.792-25.017-25.297-43.507-50.6-43.507s-46.807,18.49-50.6,43.507
			c-13.609-2.5-27.65,0.63-38.91,8.673c-11.26,8.043-18.774,20.31-20.823,33.994c-13.612-2.5-27.655,0.631-38.916,8.676
			c-11.261,8.045-18.774,20.316-20.821,34.003l0.048,0.013c-20.554-3.764-41.332,5.343-52.494,23.008
			c-11.161,17.665-10.464,40.341,1.762,57.287s33.525,24.759,53.808,19.739s35.479-21.866,38.389-42.559
			c-0.027,0.174-0.012,0.364-0.042,0.537c6.034,1.138,12.227,1.138,18.261,0c-0.03-0.173-0.015-0.363-0.042-0.537
			c3.531,25.261,25.138,44.057,50.644,44.057s47.113-18.796,50.644-44.057c-0.027,0.174-0.012,0.364-0.042,0.537
			c6.034,1.138,12.227,1.138,18.261,0c-0.03-0.173-0.015-0.363-0.042-0.537c3.531,25.261,25.138,44.057,50.644,44.057
			s47.113-18.796,50.644-44.057c-0.027,0.174-0.012,0.364-0.042,0.537c6.034,1.138,12.227,1.138,18.261,0
			c-0.03-0.173-0.015-0.363-0.042-0.537c3.829,27.065,28.252,46.343,55.466,43.781c27.214-2.562,47.611-26.058,46.322-53.362
			C484.047,300.111,461.528,278.64,434.193,278.653z M93.882,282.003c-0.207-0.078-0.415-0.153-0.623-0.228L93.882,282.003z
			 M101.838,285.829c-0.152-0.09-0.299-0.186-0.451-0.274C101.539,285.643,101.686,285.739,101.838,285.829z M119.74,303.681
			c0.121,0.204,0.248,0.4,0.367,0.605C119.989,304.081,119.861,303.883,119.74,303.681L119.74,303.681z M123.567,311.556
			c0.127,0.329,0.243,0.659,0.363,0.991C123.81,312.215,123.693,311.884,123.567,311.556L123.567,311.556z M126.076,320.333
			c0.061,0.323,0.094,0.652,0.149,0.977C126.169,320.986,126.136,320.655,126.076,320.333L126.076,320.333z M356.997,239.126
			c1.68-0.569,3.388-1.05,5.118-1.441C360.386,238.076,358.677,238.557,356.997,239.126L356.997,239.126z M365.158,321.31
			c-0.055-0.324-0.089-0.655-0.149-0.977C365.07,320.656,365.103,320.985,365.158,321.31L365.158,321.31z M362.864,312.547
			c-0.119-0.332-0.237-0.663-0.363-0.991C362.627,311.885,362.744,312.214,362.864,312.547L362.864,312.547z M359.041,304.285
			c-0.118-0.204-0.246-0.402-0.367-0.605C358.794,303.884,358.922,304.08,359.041,304.285L359.041,304.285z M349.218,242.765
			c1.465-0.834,3.002-1.528,4.552-2.217C352.224,241.238,350.68,241.93,349.218,242.765L349.218,242.765z M346.265,244.659
			c-1.39,0.925-2.753,1.885-4.043,2.937C343.514,246.542,344.87,245.585,346.265,244.659L346.265,244.659z M339.598,249.911
			c-1.217,1.139-2.376,2.335-3.475,3.589C337.227,252.244,338.378,251.052,339.598,249.911L339.598,249.911z M325.908,271.103
			c-0.923,2.737-1.609,5.549-2.051,8.404l0.048,0.013c-0.287-0.052-0.581-0.085-0.87-0.133c0.27,0.049,0.555,0.065,0.822,0.119
			C324.299,276.652,324.985,273.84,325.908,271.103L325.908,271.103z M333.9,256.163c-1.034,1.348-1.964,2.772-2.862,4.22
			C331.921,258.93,332.876,257.521,333.9,256.163L333.9,256.163z M329.294,263.277c-0.846,1.647-1.6,3.339-2.261,5.068
			C327.693,266.616,328.448,264.924,329.294,263.277L329.294,263.277z M340.771,285.829c-0.152-0.09-0.299-0.186-0.451-0.274
			C340.473,285.643,340.619,285.739,340.771,285.829L340.771,285.829z M332.816,282.004c-0.207-0.078-0.415-0.153-0.623-0.228
			L332.816,282.004z M289.485,200.098c1.465-0.834,3.002-1.528,4.552-2.217C292.49,198.571,290.947,199.264,289.485,200.098
			L289.485,200.098z M293.33,253.499c-1.102-1.252-2.26-2.448-3.475-3.589C291.076,251.052,292.227,252.244,293.33,253.499
			L293.33,253.499z M264.127,236.827c0.442-2.85,1.127-5.657,2.047-8.391C265.253,231.169,264.568,233.977,264.127,236.827z
			 M270.78,303.68c-0.121,0.203-0.249,0.401-0.367,0.605C270.532,304.08,270.659,303.884,270.78,303.68z M266.953,311.555
			c-0.126,0.328-0.244,0.659-0.363,0.991C266.71,312.214,266.827,311.885,266.953,311.555L266.953,311.555z M264.445,320.333
			c-0.06,0.322-0.094,0.653-0.149,0.977C264.351,320.985,264.383,320.656,264.445,320.333L264.445,320.333z M267.338,237.685
			c1.73,0.391,3.438,0.871,5.118,1.441C270.776,238.557,269.068,238.076,267.338,237.685L267.338,237.685z M275.683,240.548
			c1.551,0.689,3.088,1.383,4.552,2.217C278.774,241.93,277.23,241.238,275.683,240.548z M303.546,271.103
			c0.922,2.738,1.608,5.549,2.05,8.404c0.267-0.055,0.553-0.07,0.822-0.119c-0.289,0.047-0.583,0.081-0.87,0.133l0.048-0.013
			C305.155,276.652,304.469,273.84,303.546,271.103z M297.261,281.775c-0.208,0.076-0.416,0.15-0.623,0.228L297.261,281.775z
			 M289.133,285.555c-0.153,0.088-0.299,0.184-0.451,0.274C288.834,285.739,288.981,285.643,289.133,285.555z M283.189,244.659
			c1.394,0.926,2.75,1.883,4.043,2.937C285.942,246.543,284.579,245.584,283.189,244.659z M295.554,256.163
			c1.024,1.358,1.979,2.767,2.862,4.22C297.518,258.935,296.588,257.511,295.554,256.163L295.554,256.163z M300.16,263.277
			c0.845,1.647,1.6,3.339,2.261,5.068C301.761,266.616,301.006,264.924,300.16,263.277z M297.264,196.459
			c1.68-0.569,3.388-1.05,5.118-1.441C300.652,195.409,298.944,195.89,297.264,196.459L297.264,196.459z M286.531,201.992
			c-1.39,0.925-2.753,1.885-4.043,2.937C283.781,203.875,285.137,202.918,286.531,201.992L286.531,201.992z M279.865,207.244
			c-1.217,1.139-2.376,2.335-3.475,3.589C277.493,209.578,278.644,208.385,279.865,207.244L279.865,207.244z M267.299,225.678
			c0.661-1.729,1.416-3.421,2.261-5.068C268.715,222.257,267.96,223.949,267.299,225.678z M271.304,217.717
			c0.883-1.454,1.838-2.862,2.862-4.22C273.132,214.844,272.202,216.268,271.304,217.717z M220.131,249.911
			c-1.217,1.139-2.376,2.335-3.475,3.589C217.76,252.244,218.911,251.052,220.131,249.911L220.131,249.911z M215.95,197.881
			c1.551,0.689,3.088,1.383,4.552,2.217C219.04,199.264,217.496,198.571,215.95,197.881L215.95,197.881z M245.691,321.311
			c-0.055-0.324-0.089-0.655-0.149-0.977C245.603,320.656,245.636,320.985,245.691,321.311L245.691,321.311z M243.396,312.547
			c-0.119-0.332-0.237-0.663-0.363-0.991C243.16,311.885,243.277,312.214,243.396,312.547L243.396,312.547z M239.573,304.285
			c-0.118-0.204-0.246-0.402-0.367-0.605C239.328,303.884,239.455,304.08,239.573,304.285L239.573,304.285z M229.751,242.765
			c1.465-0.834,3.002-1.528,4.552-2.217C232.757,241.238,231.213,241.93,229.751,242.765L229.751,242.765z M237.53,239.126
			c1.68-0.569,3.388-1.05,5.118-1.441C240.919,238.076,239.21,238.557,237.53,239.126L237.53,239.126z M245.859,236.827
			c-0.441-2.85-1.126-5.657-2.047-8.391C244.733,231.17,245.418,233.977,245.859,236.827z M230.122,207.244
			c1.22,1.141,2.371,2.334,3.475,3.589C232.496,209.581,231.337,208.385,230.122,207.244L230.122,207.244z M235.82,213.496
			c1.024,1.358,1.979,2.767,2.862,4.22C237.785,216.268,236.855,214.844,235.82,213.496L235.82,213.496z M240.427,220.61
			c0.845,1.647,1.6,3.339,2.261,5.068C242.027,223.949,241.272,222.257,240.427,220.61L240.427,220.61z M226.798,244.659
			c-1.39,0.925-2.753,1.885-4.043,2.937C224.048,246.542,225.404,245.585,226.798,244.659z M223.456,201.992
			c1.394,0.926,2.75,1.883,4.043,2.937C226.208,203.877,224.846,202.917,223.456,201.992z M212.723,196.459
			c-1.68-0.569-3.388-1.05-5.118-1.441C209.335,195.409,211.043,195.89,212.723,196.459z M206.441,271.103
			c-0.923,2.737-1.609,5.549-2.05,8.404l0.048,0.013c-0.287-0.052-0.581-0.085-0.87-0.133c0.27,0.049,0.555,0.065,0.822,0.119
			C204.832,276.652,205.518,273.84,206.441,271.103z M214.433,256.163c-1.034,1.348-1.964,2.772-2.862,4.22
			C212.454,258.929,213.409,257.521,214.433,256.163z M209.827,263.277c-0.845,1.647-1.6,3.339-2.261,5.068
			C208.227,266.616,208.981,264.924,209.827,263.277L209.827,263.277z M221.304,285.829c-0.152-0.09-0.299-0.186-0.451-0.274
			C221.006,285.643,221.153,285.739,221.304,285.829L221.304,285.829z M213.349,282.003c-0.207-0.078-0.415-0.153-0.623-0.228
			L213.349,282.003z M173.863,253.499c-1.101-1.252-2.26-2.448-3.475-3.589C171.609,251.052,172.76,252.244,173.863,253.499
			L173.863,253.499z M186.129,279.507c0.267-0.055,0.553-0.07,0.822-0.119c-0.289,0.047-0.583,0.081-0.87,0.133L186.129,279.507
			c-0.441-2.855-1.127-5.667-2.05-8.404C185.002,273.84,185.688,276.652,186.129,279.507z M182.954,268.345
			c-0.661-1.729-1.416-3.421-2.261-5.068C181.539,264.924,182.294,266.616,182.954,268.345L182.954,268.345z M178.949,260.384
			c-0.898-1.448-1.828-2.872-2.862-4.22C177.111,257.521,178.066,258.93,178.949,260.384L178.949,260.384z M177.794,281.776
			c-0.208,0.076-0.416,0.15-0.623,0.228L177.794,281.776z M169.667,285.555c-0.153,0.088-0.299,0.184-0.451,0.274
			C169.367,285.739,169.514,285.643,169.667,285.555L169.667,285.555z M156.217,240.548c1.551,0.689,3.088,1.383,4.552,2.217
			C159.307,241.93,157.763,241.238,156.217,240.548L156.217,240.548z M163.723,244.659c1.394,0.926,2.75,1.883,4.043,2.937
			C166.475,246.543,165.113,245.584,163.723,244.659L163.723,244.659z M152.99,239.126c-1.68-0.569-3.388-1.05-5.118-1.441
			C149.602,238.076,151.31,238.557,152.99,239.126L152.99,239.126z M151.314,303.681c-0.121,0.203-0.249,0.401-0.367,0.605
			C151.065,304.08,151.192,303.884,151.314,303.681L151.314,303.681z M147.487,311.556c-0.126,0.328-0.244,0.659-0.363,0.991
			C147.243,312.214,147.36,311.885,147.487,311.556L147.487,311.556z M144.978,320.333c-0.06,0.322-0.094,0.653-0.149,0.977
			C144.884,320.985,144.917,320.656,144.978,320.333L144.978,320.333z M190.251,278.906c1.638-0.162,3.308-0.253,5.009-0.253
			c1.702,0,3.371,0.091,5.009,0.253c-1.649-0.16-3.318-0.253-5.009-0.253S191.9,278.746,190.251,278.906z M246.115,236.803
			c5.869-1.089,11.888-1.089,17.757,0C258.003,235.714,251.984,235.714,246.115,236.803z M309.718,278.906
			c1.638-0.162,3.308-0.253,5.009-0.253s3.371,0.091,5.009,0.253c-1.649-0.16-3.318-0.253-5.009-0.253
			C313.036,278.653,311.367,278.746,309.718,278.906z M416.727,281.775c-0.208,0.076-0.416,0.15-0.623,0.228L416.727,281.775z
			 M408.6,285.555c-0.153,0.088-0.299,0.184-0.451,0.274C408.301,285.739,408.448,285.643,408.6,285.555L408.6,285.555z
			 M390.247,303.68c-0.121,0.203-0.249,0.401-0.367,0.605C389.999,304.08,390.126,303.884,390.247,303.68z M386.42,311.555
			c-0.126,0.328-0.244,0.659-0.363,0.991C386.177,312.214,386.293,311.885,386.42,311.555L386.42,311.555z M383.911,320.333
			c-0.06,0.322-0.094,0.653-0.149,0.977C383.817,320.985,383.85,320.656,383.911,320.333L383.911,320.333z"/>
		<g>
			<path style="fill:#795548;" d="M144.06,329.853c-0.02,2.572,0.18,5.142,0.597,7.68c-6.034,1.138-12.227,1.138-18.261,0
				c0.417-2.538,0.617-5.108,0.597-7.68c-0.025-24.739-17.728-45.925-42.069-50.347c3.787-25.023,25.295-43.52,50.603-43.52
				s46.816,18.498,50.603,43.52C161.788,283.928,144.085,305.114,144.06,329.853z"/>
			<path style="fill:#795548;" d="M365.927,329.853c0.02,2.572-0.18,5.142-0.597,7.68c6.034,1.138,12.227,1.138,18.261,0
				c-0.417-2.538-0.617-5.108-0.597-7.68c0.025-24.739,17.728-45.925,42.069-50.347c-3.787-25.023-25.295-43.52-50.603-43.52
				c-25.308,0-46.816,18.498-50.603,43.52C348.198,283.928,365.901,305.114,365.927,329.853z"/>
			<path style="fill:#795548;" d="M246.46,329.853c0.02,2.572-0.18,5.142-0.597,7.68c6.034,1.138,12.227,1.138,18.261,0
				c-0.417-2.538-0.617-5.108-0.597-7.68c0.025-24.739,17.728-45.925,42.069-50.347c-3.787-25.023-25.295-43.52-50.603-43.52
				s-46.816,18.498-50.603,43.52C228.732,283.928,246.435,305.114,246.46,329.853z"/>
		</g>
		<g>
			<path style="fill:#FFE0B2;" d="M245.863,236.84c-21.515,3.91-38.174,21.049-41.472,42.667c-6.034-1.138-12.227-1.138-18.261,0
				c-3.298-21.617-19.957-38.756-41.472-42.667c3.787-25.023,25.295-43.52,50.603-43.52S242.076,211.817,245.863,236.84z"/>
			<path style="fill:#FFE0B2;" d="M264.124,236.84c21.515,3.91,38.174,21.049,41.472,42.667c6.034-1.138,12.227-1.138,18.261,0
				c3.298-21.617,19.957-38.756,41.472-42.667c-3.787-25.023-25.295-43.52-50.603-43.52
				C289.419,193.32,267.911,211.817,264.124,236.84z"/>
		</g>
		<path style="fill:#795548;" d="M204.391,194.173c21.515,3.91,38.174,21.049,41.472,42.667c6.034-1.138,12.227-1.138,18.261,0
			c3.298-21.617,19.957-38.756,41.472-42.667c-3.787-25.023-25.295-43.52-50.603-43.52S208.178,169.15,204.391,194.173z"/>
	</g>
	<g>
		<path d="M255.993,110.92c2.263,0.001,4.434-0.898,6.035-2.499c1.6-1.6,2.499-3.771,2.499-6.035V29.12l11.034,11.034
			c2.151,2.178,5.304,3.037,8.262,2.251c2.958-0.786,5.269-3.097,6.055-6.055c0.786-2.958-0.073-6.111-2.251-8.262L262.034,2.494
			c-3.341-3.325-8.741-3.325-12.081,0L224.36,28.087c-3.281,3.341-3.256,8.701,0.054,12.012c3.311,3.311,8.671,3.335,12.012,0.054
			L247.46,29.12v73.267c-0.001,2.263,0.898,4.434,2.499,6.035S253.73,110.921,255.993,110.92z"/>
		<path d="M426.66,204.787c2.263,0.001,4.434-0.898,6.035-2.499c1.6-1.6,2.499-3.771,2.499-6.035v-73.267l11.034,11.034
			c2.151,2.178,5.304,3.037,8.262,2.251c2.958-0.786,5.269-3.097,6.055-6.055c0.786-2.958-0.073-6.111-2.251-8.262L432.7,96.361
			c-3.341-3.325-8.741-3.325-12.081,0l-25.592,25.593c-3.281,3.341-3.256,8.701,0.054,12.012c3.311,3.311,8.671,3.335,12.012,0.054
			l11.034-11.033v73.267c-0.001,2.263,0.898,4.434,2.499,6.035C422.226,203.888,424.397,204.787,426.66,204.787z"/>
		<path d="M85.327,204.787c2.263,0.001,4.434-0.898,6.035-2.499c1.6-1.6,2.499-3.771,2.499-6.035v-73.267l11.034,11.034
			c3.338,3.296,8.711,3.279,12.029-0.038c3.317-3.317,3.334-8.691,0.038-12.029L91.367,96.361c-3.341-3.325-8.741-3.325-12.081,0
			l-25.592,25.593c-3.281,3.341-3.256,8.701,0.054,12.012c3.311,3.311,8.671,3.335,12.012,0.054l11.034-11.033v73.267
			c-0.001,2.263,0.898,4.434,2.499,6.035C80.893,203.888,83.063,204.787,85.327,204.787z"/>
		<path d="M466.902,391.85c22.574-14.122,33.059-41.492,25.7-67.082c-7.359-25.59-30.782-43.208-57.409-43.182
			c-0.854,0-1.685,0.093-2.53,0.128c-7.589-25.287-30.802-42.653-57.203-42.795c-0.852,0-1.688,0.081-2.533,0.117
			c-7.593-25.282-30.803-42.642-57.2-42.784c-0.852,0-1.688,0.081-2.533,0.117c-7.47-25.367-30.756-42.784-57.2-42.784
			s-49.73,17.417-57.2,42.784c-0.845-0.036-1.681-0.117-2.533-0.117c-26.397,0.141-49.607,17.502-57.2,42.784
			c-0.845-0.036-1.681-0.117-2.533-0.117c-26.401,0.141-49.614,17.507-57.203,42.795c-0.845-0.035-1.676-0.128-2.53-0.128
			c-26.628-0.027-50.051,17.591-57.41,43.182c-7.359,25.59,3.127,52.96,25.701,67.082C22.63,403.636,8.554,426.893,8.527,452.253
			v42.667c0.011,9.421,7.645,17.056,17.067,17.067h460.8c9.421-0.011,17.056-7.645,17.067-17.067v-42.667
			C503.433,426.893,489.357,403.636,466.902,391.85z M477.86,341.32c0.075,16.272-9.111,31.17-23.683,38.409
			c-14.573,7.24-31.994,5.56-44.916-4.33c-12.922-9.89-19.093-26.268-15.911-42.226c0.154-0.794,0.432-1.54,0.629-2.319
			c0.439-1.832,0.999-3.633,1.677-5.391c0.316-0.789,0.717-1.532,1.078-2.298c0.766-1.653,1.637-3.256,2.608-4.798
			c0.435-0.681,0.914-1.328,1.386-1.981c1.083-1.5,2.262-2.929,3.53-4.277c0.536-0.568,1.081-1.123,1.647-1.66
			c1.342-1.261,2.764-2.435,4.256-3.513c0.668-0.486,1.323-0.987,2.021-1.434c1.471-0.92,2.997-1.749,4.569-2.483
			c0.877-0.42,1.722-0.888,2.633-1.249c1.426-0.529,2.88-0.982,4.355-1.355c1.172-0.324,2.307-0.732,3.522-0.958
			c12.489-2.466,25.425,0.811,35.233,8.926S477.944,328.59,477.86,341.32z M134.04,358.273c0.833,0.034,1.631,0.114,2.486,0.114
			s1.654-0.08,2.486-0.114c4.161,13.918,13.237,25.851,25.539,33.578c-11.808,6.226-21.546,15.756-28.025,27.427
			c-6.479-11.671-16.217-21.201-28.024-27.427C120.804,384.123,129.879,372.191,134.04,358.273z M153.593,341.32
			c0.012-2.736,0.288-5.464,0.823-8.146c0.154-0.794,0.432-1.54,0.629-2.319c0.439-1.832,0.999-3.633,1.677-5.391
			c0.316-0.789,0.717-1.532,1.078-2.298c0.766-1.653,1.637-3.256,2.608-4.798c0.435-0.681,0.913-1.328,1.386-1.981
			c1.083-1.5,2.262-2.929,3.53-4.277c0.536-0.568,1.081-1.123,1.647-1.66c1.342-1.261,2.764-2.435,4.256-3.513
			c0.668-0.486,1.323-0.987,2.021-1.434c1.471-0.92,2.997-1.749,4.569-2.483c0.877-0.42,1.722-0.888,2.633-1.249
			c1.426-0.529,2.88-0.982,4.355-1.355c1.172-0.324,2.307-0.732,3.522-0.958c2.589-0.508,5.22-0.774,7.859-0.795h0.145
			c2.639,0.021,5.27,0.287,7.859,0.795c1.216,0.226,2.35,0.633,3.522,0.958c1.475,0.373,2.929,0.826,4.355,1.355
			c0.911,0.361,1.756,0.829,2.633,1.249c1.572,0.734,3.098,1.564,4.569,2.483c0.698,0.447,1.353,0.948,2.021,1.434
			c1.493,1.079,2.914,2.252,4.256,3.513c0.567,0.538,1.111,1.092,1.647,1.66c1.268,1.348,2.447,2.777,3.53,4.277
			c0.472,0.654,0.951,1.301,1.386,1.981c0.971,1.542,1.842,3.145,2.608,4.798c0.361,0.766,0.762,1.509,1.078,2.298
			c0.678,1.758,1.238,3.559,1.677,5.391c0.197,0.779,0.476,1.524,0.629,2.319c3.106,15.922-3.089,32.228-15.985,42.07
			c-12.896,9.842-30.259,11.516-44.797,4.318C162.782,372.365,153.586,357.543,153.593,341.32z M237.557,260.3
			c1.57-0.774,3.186-1.451,4.839-2.027c1.218-0.407,2.492-0.686,3.757-0.985c0.895-0.217,1.767-0.5,2.682-0.658
			c0.322-0.064,0.695-0.094,1.034-0.148c1.994-0.307,4.008-0.47,6.026-0.487l0.223,0.002c2.007,0.018,4.011,0.18,5.995,0.485
			c0.34,0.054,0.714,0.084,1.038,0.148c0.914,0.158,1.786,0.442,2.682,0.658c1.266,0.299,2.539,0.578,3.757,0.985
			c1.653,0.576,3.269,1.253,4.839,2.027c0.318,0.153,0.658,0.267,0.971,0.427c5.776,2.982,10.806,7.225,14.719,12.415l0.062,0.075
			c1.068,1.464,2.041,2.994,2.915,4.581c0.219,0.39,0.483,0.751,0.69,1.148c0.627,1.264,1.191,2.559,1.688,3.88
			c0.27,0.676,0.584,1.327,0.819,2.019c-0.28,0.096-0.528,0.247-0.806,0.347c-2.277,0.819-4.502,1.777-6.662,2.868
			c-0.473,0.237-0.963,0.439-1.428,0.689c-2.131,1.17-4.189,2.469-6.161,3.89c-0.83,0.587-1.635,1.192-2.432,1.82
			c-1.611,1.267-3.157,2.616-4.631,4.041c-0.841,0.816-1.627,1.669-2.418,2.532c-1.161,1.266-2.267,2.579-3.319,3.938
			c-0.613,0.796-1.229,1.58-1.801,2.406c-1.353,1.948-2.588,3.975-3.699,6.069c-0.377,0.714-0.703,1.448-1.051,2.179
			c-0.926,1.929-1.746,3.907-2.458,5.924c-0.189,0.54-0.415,1.059-0.589,1.606c-0.799,2.54-1.425,5.131-1.875,7.756
			c-0.114,0.643-0.205,1.289-0.297,1.938c-0.426,2.804-0.65,5.636-0.673,8.472c-0.022-2.837-0.247-5.67-0.672-8.475
			c-0.092-0.647-0.183-1.29-0.296-1.931c-0.45-2.626-1.077-5.218-1.877-7.76c-0.174-0.546-0.4-1.066-0.589-1.606
			c-0.712-2.018-1.533-3.995-2.458-5.924c-0.348-0.73-0.674-1.465-1.051-2.179c-1.112-2.096-2.348-4.124-3.702-6.073
			c-0.57-0.825-1.186-1.606-1.797-2.401c-1.051-1.364-2.157-2.677-3.32-3.94c-0.791-0.863-1.577-1.717-2.418-2.532
			c-1.474-1.425-3.02-2.774-4.631-4.041c-0.796-0.627-1.6-1.231-2.429-1.818c-1.973-1.421-4.032-2.721-6.164-3.891
			c-0.465-0.25-0.955-0.451-1.428-0.689c-2.16-1.091-4.385-2.049-6.662-2.868c-0.278-0.1-0.526-0.251-0.806-0.347
			c0.235-0.692,0.55-1.344,0.819-2.019c0.497-1.321,1.061-2.616,1.688-3.88c0.207-0.397,0.471-0.758,0.69-1.148
			c0.873-1.587,1.847-3.118,2.915-4.581l0.062-0.075c3.913-5.19,8.943-9.433,14.719-12.415
			C236.9,260.566,237.239,260.452,237.557,260.3z M253.507,358.273c0.833,0.033,1.629,0.114,2.486,0.114
			c0.857,0,1.654-0.08,2.486-0.114c4.161,13.918,13.237,25.85,25.539,33.577c-11.808,6.226-21.546,15.756-28.025,27.427
			c-6.479-11.671-16.217-21.201-28.025-27.427C240.27,384.124,249.346,372.191,253.507,358.273z M273.06,341.32
			c0.012-2.736,0.288-5.464,0.823-8.146c0.154-0.794,0.432-1.54,0.629-2.319c0.439-1.832,0.999-3.633,1.677-5.391
			c0.316-0.789,0.717-1.532,1.078-2.298c0.766-1.653,1.637-3.256,2.608-4.798c0.435-0.681,0.913-1.328,1.386-1.981
			c1.083-1.5,2.262-2.929,3.53-4.277c0.536-0.568,1.081-1.123,1.647-1.66c1.342-1.261,2.764-2.435,4.256-3.513
			c0.668-0.486,1.323-0.987,2.021-1.434c1.471-0.92,2.997-1.749,4.569-2.483c0.877-0.42,1.722-0.888,2.633-1.249
			c1.426-0.529,2.88-0.982,4.355-1.355c1.172-0.324,2.307-0.732,3.522-0.958c2.569-0.502,5.178-0.766,7.796-0.788l0.253-0.002
			c2.623,0.022,5.239,0.287,7.814,0.79c1.216,0.226,2.35,0.633,3.522,0.958c1.475,0.373,2.929,0.826,4.355,1.355
			c0.911,0.361,1.756,0.829,2.633,1.249c1.572,0.734,3.098,1.564,4.569,2.483c0.698,0.447,1.353,0.948,2.021,1.434
			c1.493,1.079,2.914,2.252,4.256,3.513c0.567,0.538,1.111,1.092,1.647,1.66c1.268,1.348,2.447,2.777,3.53,4.277
			c0.472,0.654,0.951,1.301,1.386,1.981c0.971,1.542,1.842,3.145,2.608,4.798c0.361,0.766,0.762,1.509,1.078,2.298
			c0.678,1.758,1.238,3.559,1.677,5.391c0.197,0.779,0.476,1.524,0.629,2.319c3.108,15.923-3.086,32.231-15.983,42.075
			c-12.897,9.843-30.261,11.517-44.8,4.319C282.246,372.368,273.05,357.544,273.06,341.32z M372.974,358.273
			c0.833,0.033,1.629,0.114,2.486,0.114c0.857,0,1.654-0.08,2.486-0.114c4.161,13.918,13.237,25.85,25.539,33.577
			c-11.808,6.226-21.546,15.756-28.025,27.427c-6.479-11.671-16.217-21.201-28.024-27.427
			C359.737,384.124,368.813,372.191,372.974,358.273z M415.81,284.824c-0.297,0.101-0.561,0.263-0.856,0.368
			c-2.277,0.819-4.502,1.777-6.662,2.868c-0.473,0.237-0.964,0.439-1.428,0.689c-2.131,1.17-4.189,2.469-6.161,3.89
			c-0.83,0.587-1.635,1.192-2.432,1.82c-1.611,1.267-3.157,2.616-4.631,4.041c-0.841,0.816-1.627,1.669-2.418,2.532
			c-1.161,1.266-2.267,2.579-3.319,3.938c-0.613,0.796-1.229,1.58-1.801,2.406c-1.353,1.948-2.588,3.974-3.699,6.069
			c-0.377,0.714-0.703,1.448-1.051,2.179c-0.926,1.929-1.746,3.907-2.458,5.924c-0.189,0.54-0.415,1.059-0.589,1.606
			c-0.799,2.54-1.425,5.131-1.875,7.756c-0.114,0.643-0.205,1.289-0.297,1.938c-0.426,2.805-0.65,5.636-0.673,8.472
			c-0.022-2.837-0.247-5.67-0.672-8.475c-0.092-0.647-0.183-1.29-0.296-1.931c-0.45-2.626-1.077-5.218-1.877-7.76
			c-0.174-0.546-0.4-1.066-0.589-1.606c-0.712-2.018-1.533-3.995-2.458-5.924c-0.348-0.73-0.674-1.465-1.051-2.179
			c-1.112-2.096-2.348-4.124-3.702-6.073c-0.57-0.825-1.186-1.606-1.797-2.401c-1.051-1.364-2.157-2.677-3.32-3.94
			c-0.791-0.863-1.577-1.717-2.418-2.532c-1.474-1.425-3.02-2.774-4.631-4.041c-0.796-0.627-1.6-1.231-2.429-1.818
			c-1.974-1.421-4.032-2.721-6.164-3.891c-0.465-0.25-0.955-0.451-1.428-0.689c-2.16-1.091-4.385-2.049-6.662-2.868
			c-0.278-0.1-0.526-0.251-0.806-0.347c0.235-0.692,0.55-1.344,0.819-2.019c0.497-1.321,1.061-2.616,1.688-3.88
			c0.207-0.397,0.471-0.758,0.69-1.148c0.873-1.587,1.847-3.118,2.915-4.581l0.062-0.075c3.913-5.19,8.943-9.433,14.719-12.415
			c0.314-0.16,0.653-0.274,0.971-0.427c1.57-0.774,3.186-1.451,4.839-2.027c1.218-0.407,2.492-0.686,3.757-0.985
			c3.216-0.823,6.52-1.26,9.839-1.301C393.663,256.075,409.832,267.631,415.81,284.824z M356.077,242.166
			c-0.373,0.127-0.716,0.311-1.086,0.445c-0.83,0.307-1.637,0.661-2.451,1.004c-10.572,4.378-19.654,11.716-26.154,21.133
			c-0.243,0.35-0.473,0.709-0.709,1.064c-0.803,1.218-1.598,2.434-2.312,3.713c-0.879,1.559-1.689,3.16-2.429,4.805
			c-0.324,0.73-0.592,1.487-0.887,2.233c-0.532,1.326-1.026,2.667-1.464,4.038c-0.111,0.352-0.271,0.681-0.375,1.036
			c-0.492-0.02-0.996,0.008-1.496,0c-0.332-0.006-0.654-0.05-0.987-0.05c-0.333,0-0.655,0.044-0.987,0.05
			c-0.501,0.008-1.004-0.02-1.496,0c-0.105-0.355-0.265-0.684-0.375-1.036c-0.438-1.371-0.931-2.712-1.464-4.038
			c-0.296-0.746-0.563-1.504-0.887-2.233c-0.74-1.645-1.55-3.248-2.431-4.809c-0.712-1.276-1.507-2.491-2.308-3.706
			c-0.236-0.356-0.466-0.716-0.71-1.066c-6.499-9.415-15.579-16.752-26.148-21.13c-0.817-0.344-1.625-0.699-2.458-1.007
			c-0.353-0.128-0.681-0.304-1.037-0.425c0.226-0.664,0.529-1.289,0.786-1.937c0.507-1.352,1.083-2.677,1.725-3.971
			c0.201-0.385,0.456-0.734,0.668-1.112c0.877-1.597,1.855-3.136,2.929-4.608l0.072-0.086c3.909-5.187,8.934-9.427,14.705-12.407
			c0.331-0.169,0.688-0.29,1.024-0.45c1.555-0.766,3.155-1.436,4.791-2.007c1.227-0.41,2.51-0.693,3.786-0.992
			c3.209-0.819,6.505-1.254,9.817-1.296C333.933,213.405,350.105,224.966,356.077,242.166L356.077,242.166z M215.644,199.499
			c5.9-17.253,22.116-28.845,40.35-28.845s34.45,11.593,40.35,28.845c-0.373,0.127-0.716,0.311-1.086,0.445
			c-0.83,0.307-1.637,0.661-2.451,1.004c-10.572,4.378-19.654,11.716-26.154,21.133c-0.243,0.35-0.473,0.709-0.709,1.064
			c-0.803,1.218-1.598,2.434-2.312,3.713c-0.879,1.559-1.689,3.16-2.429,4.805c-0.324,0.73-0.592,1.487-0.887,2.233
			c-0.532,1.326-1.026,2.667-1.464,4.038c-0.111,0.352-0.271,0.681-0.375,1.036c-0.817-0.033-1.642-0.05-2.483-0.05
			c-0.842,0-1.667,0.017-2.483,0.05c-0.105-0.355-0.265-0.684-0.375-1.036c-0.438-1.371-0.931-2.713-1.464-4.038
			c-0.296-0.746-0.563-1.504-0.887-2.233c-0.74-1.645-1.55-3.248-2.431-4.809c-0.712-1.276-1.507-2.491-2.308-3.706
			c-0.236-0.356-0.466-0.716-0.71-1.066c-6.499-9.415-15.579-16.752-26.148-21.13c-0.817-0.344-1.625-0.699-2.458-1.007
			C216.359,199.81,216.016,199.626,215.644,199.499L215.644,199.499z M155.91,242.166c5.971-17.2,22.143-28.761,40.35-28.846
			c3.312,0.041,6.607,0.476,9.816,1.295c1.276,0.3,2.559,0.582,3.786,0.992c1.636,0.571,3.236,1.241,4.791,2.007
			c0.336,0.16,0.694,0.282,1.024,0.45c5.77,2.98,10.796,7.22,14.705,12.406l0.072,0.086c1.073,1.472,2.052,3.011,2.929,4.608
			c0.211,0.378,0.467,0.727,0.668,1.112c0.642,1.293,1.218,2.619,1.726,3.971c0.257,0.649,0.56,1.273,0.786,1.937
			c-0.357,0.122-0.685,0.297-1.038,0.426c-0.83,0.307-1.637,0.661-2.451,1.004c-10.572,4.378-19.654,11.716-26.154,21.133
			c-0.243,0.35-0.473,0.709-0.709,1.064c-0.803,1.218-1.598,2.434-2.312,3.713c-0.879,1.559-1.689,3.16-2.429,4.805
			c-0.324,0.73-0.592,1.487-0.887,2.233c-0.532,1.326-1.026,2.667-1.464,4.038c-0.111,0.352-0.271,0.681-0.375,1.036
			c-0.816-0.032-1.641-0.049-2.483-0.049c-0.842,0-1.667,0.017-2.483,0.05c-0.105-0.355-0.265-0.684-0.375-1.036
			c-0.438-1.371-0.931-2.712-1.464-4.038c-0.296-0.746-0.563-1.504-0.887-2.233c-0.74-1.645-1.55-3.248-2.431-4.809
			c-0.712-1.276-1.507-2.491-2.308-3.706c-0.236-0.356-0.466-0.716-0.71-1.066c-6.499-9.415-15.579-16.752-26.148-21.13
			c-0.817-0.344-1.625-0.699-2.458-1.007C156.626,242.476,156.282,242.293,155.91,242.166L155.91,242.166z M96.177,284.824
			c5.974-17.197,22.145-28.754,40.35-28.837c3.302,0.041,6.587,0.473,9.788,1.288c1.289,0.302,2.583,0.588,3.822,1.002
			c1.609,0.563,3.182,1.222,4.712,1.973c0.363,0.172,0.749,0.304,1.106,0.486c5.724,2.96,10.714,7.161,14.607,12.297
			c0.055,0.072,0.119,0.135,0.173,0.208c1.04,1.431,1.99,2.925,2.845,4.474c0.239,0.423,0.525,0.815,0.749,1.247
			c0.645,1.229,1.143,2.539,1.667,3.835c0.275,0.685,0.592,1.347,0.831,2.049c-0.28,0.096-0.528,0.247-0.806,0.347
			c-2.277,0.82-4.502,1.777-6.662,2.868c-0.473,0.237-0.964,0.439-1.428,0.689c-2.131,1.17-4.188,2.469-6.161,3.89
			c-0.83,0.587-1.635,1.192-2.432,1.82c-1.611,1.267-3.157,2.616-4.631,4.041c-0.841,0.816-1.627,1.669-2.418,2.532
			c-1.161,1.266-2.267,2.579-3.319,3.938c-0.613,0.796-1.229,1.58-1.801,2.406c-1.353,1.948-2.588,3.974-3.699,6.069
			c-0.377,0.714-0.703,1.448-1.051,2.179c-0.926,1.929-1.746,3.907-2.458,5.924c-0.189,0.54-0.415,1.059-0.589,1.606
			c-0.799,2.54-1.425,5.131-1.875,7.756c-0.114,0.643-0.205,1.289-0.297,1.938c-0.426,2.804-0.651,5.635-0.674,8.472
			c-0.022-2.837-0.247-5.67-0.672-8.475c-0.092-0.647-0.183-1.29-0.296-1.931c-0.45-2.626-1.077-5.218-1.877-7.76
			c-0.174-0.546-0.4-1.066-0.589-1.606c-0.712-2.018-1.533-3.995-2.458-5.924c-0.348-0.73-0.674-1.465-1.051-2.179
			c-1.112-2.096-2.348-4.124-3.702-6.073c-0.57-0.825-1.186-1.606-1.797-2.401c-1.051-1.364-2.157-2.677-3.32-3.94
			c-0.791-0.863-1.577-1.717-2.418-2.532c-1.474-1.425-3.02-2.774-4.631-4.041c-0.796-0.627-1.6-1.231-2.429-1.818
			c-1.974-1.421-4.032-2.721-6.164-3.891c-0.465-0.25-0.955-0.451-1.428-0.689c-2.16-1.091-4.385-2.049-6.662-2.868
			C96.738,285.087,96.474,284.925,96.177,284.824L96.177,284.824z M34.127,341.32c-0.084-12.73,5.557-24.823,15.365-32.938
			c9.808-8.115,22.744-11.392,35.233-8.926c1.216,0.226,2.35,0.633,3.522,0.958c1.475,0.374,2.929,0.826,4.355,1.355
			c0.911,0.361,1.756,0.829,2.633,1.249c1.572,0.734,3.098,1.564,4.569,2.483c0.698,0.447,1.353,0.948,2.021,1.434
			c1.493,1.079,2.914,2.252,4.256,3.514c0.567,0.538,1.111,1.092,1.647,1.66c1.268,1.348,2.447,2.777,3.53,4.277
			c0.472,0.654,0.951,1.301,1.386,1.981c0.971,1.542,1.842,3.145,2.608,4.798c0.361,0.766,0.762,1.509,1.078,2.298
			c0.678,1.758,1.238,3.559,1.677,5.391c0.197,0.779,0.476,1.524,0.629,2.319c3.108,15.923-3.088,32.23-15.984,42.073
			c-12.896,9.843-30.26,11.517-44.799,4.318C43.314,372.367,34.118,357.543,34.127,341.32z M25.593,452.253
			c0-28.277,22.923-51.2,51.2-51.2s51.2,22.923,51.2,51.2v42.667h-102.4V452.253z M145.06,452.253c0-28.277,22.923-51.2,51.2-51.2
			s51.2,22.923,51.2,51.2v42.667h-102.4V452.253z M264.527,452.253c0-28.277,22.923-51.2,51.2-51.2c28.277,0,51.2,22.923,51.2,51.2
			v42.667h-102.4V452.253z M486.393,494.92h-102.4v-42.667c0-28.277,22.923-51.2,51.2-51.2c28.277,0,51.2,22.923,51.2,51.2V494.92z"
			/>
	</g>
</g>
<g>
</g>
<g>
</g>
<g>
</g>
<g>
</g>
<g>
</g>
<g>
</g>
<g>
</g>
<g>
</g>
<g>
</g>
<g>
</g>
<g>
</g>
<g>
</g>
<g>
</g>
<g>
</g>
<g>
</g>
</svg>
